<?xml version="1.0" encoding="utf-8"?>
<!-- Generator: Adobe Illustrator 26.3.1, SVG Export Plug-In . SVG Version: 6.00 Build 0)  -->
<svg version="1.1"
	 id="SVGRoot" xmlns:sodipodi="http://sodipodi.sourceforge.net/DTD/sodipodi-0.dtd" xmlns:svg="http://www.w3.org/2000/svg" xmlns:inkscape="http://www.inkscape.org/namespaces/inkscape"
	 xmlns="http://www.w3.org/2000/svg" xmlns:xlink="http://www.w3.org/1999/xlink" x="0px" y="0px" viewBox="0 0 120 120"
	 style="enable-background:new 0 0 120 120;" xml:space="preserve">
<style type="text/css">
	.st0{fill:none;stroke:#000000;stroke-width:0.5278;}
	.st1{fill:#FFFFFF;}
	.st2{fill:none;stroke:#FFFFFF;stroke-width:0.527;}
</style>
<sodipodi:namedview  bordercolor="#ffffff" borderopacity="1" id="namedview829" inkscape:current-layer="g1628" inkscape:cx="55.5" inkscape:cy="48.875" inkscape:document-units="px" inkscape:pagecheckerboard="1" inkscape:pageopacity="0" inkscape:pageshadow="0" inkscape:snap-global="false" inkscape:snap-grids="false" inkscape:snap-nodes="true" inkscape:snap-others="true" inkscape:window-height="1081" inkscape:window-maximized="0" inkscape:window-width="1701" inkscape:window-x="870" inkscape:window-y="74" inkscape:zoom="4" pagecolor="#505050" showgrid="true" showguides="false" width="120px">
	<inkscape:grid  id="grid892" type="xygrid"></inkscape:grid>
	<sodipodi:guide  id="guide826" orientation="0,-1" position="86.879227,194.78261"></sodipodi:guide>
</sodipodi:namedview>
<defs>
	
		<inkscape:perspective  id="perspective3508" inkscape:persp3d-origin="64 : 34.666667 : 1" inkscape:vp_x="0 : 56 : 1" inkscape:vp_y="0 : 1000 : 0" inkscape:vp_z="128 : 56 : 1" sodipodi:type="inkscape:persp3d">
		</inkscape:perspective>
</defs>
<g id="layer1" inkscape:groupmode="layer" inkscape:label="Layer 1">
	<g id="g1218" transform="matrix(0.82806788,0,0,1.0839368,10.382367,-4.1223995)">
		<g id="g1628" transform="translate(0,2.9547218)">
			<g id="g1772" transform="matrix(-0.8613672,-0.37991783,0.65097715,-0.86136724,73.898219,128.79034)">
				<g>
					<path class="st0" d="M48.2,94.5L48.2,94.5L48.1,18v-0.6v-7.3l11.7-3.6l12,3.5v7.3v0.6v76.5l0,0L60,109.5L48.2,94.5L48.2,94.5z"
						/>
				</g>
				<g>
					<path class="st1" d="M48.2,94.5L48.2,94.5L48.1,18v-0.6v-7.3l11.7-3.6l12,3.5v7.3v0.6v76.5l0,0L60,109.5L48.2,94.5L48.2,94.5z"
						/>
				</g>
				<g>
					<path class="st2" d="M48.2,94.5L48.2,94.5L48.1,18v-0.6v-7.3l11.7-3.6l12,3.5v7.3v0.6v76.5l0,0L60,109.5L48.2,94.5L48.2,94.5z"
						/>
				</g>
			</g>
		</g>
	</g>
</g>
</svg>
