<?xml version="1.0" encoding="utf-8"?>
<!-- Generator: Adobe Illustrator 26.3.1, SVG Export Plug-In . SVG Version: 6.00 Build 0)  -->
<svg version="1.1"
	 id="SVGRoot" xmlns:svg="http://www.w3.org/2000/svg" xmlns:sodipodi="http://sodipodi.sourceforge.net/DTD/sodipodi-0.dtd" xmlns:inkscape="http://www.inkscape.org/namespaces/inkscape"
	 xmlns="http://www.w3.org/2000/svg" xmlns:xlink="http://www.w3.org/1999/xlink" x="0px" y="0px" viewBox="0 0 120 120"
	 style="enable-background:new 0 0 120 120;" xml:space="preserve">
<style type="text/css">
	.st0{fill:#FFFFFF;stroke:#00708C;stroke-width:0.5278;}
	.st1{fill:#FFFFFF;}
	.st2{fill:none;stroke:#FFFFFF;stroke-width:0.52;}
</style>
<sodipodi:namedview  bordercolor="#ffffff" borderopacity="1" id="namedview829" inkscape:current-layer="layer1" inkscape:cx="48.78012" inkscape:cy="50.11235" inkscape:document-units="px" inkscape:pagecheckerboard="1" inkscape:pageopacity="0" inkscape:pageshadow="0" inkscape:snap-grids="true" inkscape:snap-nodes="true" inkscape:snap-others="true" inkscape:snap-page="false" inkscape:snap-to-guides="true" inkscape:window-height="1081" inkscape:window-maximized="0" inkscape:window-width="1701" inkscape:window-x="371" inkscape:window-y="105" inkscape:zoom="4.8790368" pagecolor="#505050" showgrid="true" showguides="false" width="120px">
	<inkscape:grid  id="grid892" type="xygrid"></inkscape:grid>
	<sodipodi:guide  id="guide826" orientation="0,-1" position="86.879227,194.78261"></sodipodi:guide>
</sodipodi:namedview>
<defs>
</defs>
<g id="layer1" inkscape:groupmode="layer" inkscape:label="Layer 1">
	<g>
		
			<g id="g1772_00000074428802478712879330000008956442185633955731_" transform="matrix(0.82361382,0,0,1.0781065,10.627034,-2.5419517)">
			<path class="st0" d="M71.8,10v84.4L60,109.5l-11.8-15c0,0,0,0,0.1,0l-0.1-0.1V10l11.7-3.6L71.8,10z"/>
		</g>
	</g>
	<g>
		
			<g id="g1772_00000054976675643171937810000004341625630304784821_" transform="matrix(0.82361382,0,0,1.0781065,10.627034,-2.5419517)">
			<path class="st1" d="M71.8,10v84.4L60,109.5l-11.8-15c0,0,0,0,0.1,0l-0.1-0.1V10l11.7-3.6L71.8,10z"/>
		</g>
	</g>
	<g>
		
			<g id="g1772_00000096750107583143908310000001595518933484207272_" transform="matrix(0.82361382,0,0,1.0781065,10.627034,-2.5419517)">
			<path class="st2" d="M71.8,10v84.4L60,109.5l-11.8-15c0,0,0,0,0.1,0l-0.1-0.1V10l11.7-3.6L71.8,10z"/>
		</g>
	</g>
</g>
</svg>
