<?xml version="1.0" encoding="utf-8"?>
<!-- Generator: Adobe Illustrator 26.3.1, SVG Export Plug-In . SVG Version: 6.00 Build 0)  -->
<svg version="1.1"
	 id="SVGRoot" xmlns:svg="http://www.w3.org/2000/svg" xmlns:sodipodi="http://sodipodi.sourceforge.net/DTD/sodipodi-0.dtd" xmlns:inkscape="http://www.inkscape.org/namespaces/inkscape"
	 xmlns="http://www.w3.org/2000/svg" xmlns:xlink="http://www.w3.org/1999/xlink" x="0px" y="0px" viewBox="0 0 120 120"
	 style="enable-background:new 0 0 120 120;" xml:space="preserve">
<style type="text/css">
	.st0{fill:none;stroke:#37ABC8;stroke-width:1.0555;}
	.st1{fill:none;stroke:#00AAD4;stroke-width:1.0555;}
	.st2{fill:#FFCAA6;stroke:#BF977C;stroke-width:0.5278;}
	.st3{fill:#B20C00;stroke:#8C0900;stroke-width:0.5278;}
	.st4{stroke:#000000;stroke-width:0.5278;}
</style>
<sodipodi:namedview  bordercolor="#ffffff" borderopacity="1" id="namedview829" inkscape:current-layer="g1628" inkscape:cx="55.5" inkscape:cy="48.875" inkscape:document-units="px" inkscape:pagecheckerboard="1" inkscape:pageopacity="0" inkscape:pageshadow="0" inkscape:snap-global="false" inkscape:snap-grids="false" inkscape:snap-nodes="true" inkscape:snap-others="true" inkscape:window-height="1081" inkscape:window-maximized="0" inkscape:window-width="1701" inkscape:window-x="870" inkscape:window-y="74" inkscape:zoom="4" pagecolor="#505050" showgrid="true" showguides="false" width="120px">
	<inkscape:grid  id="grid892" type="xygrid"></inkscape:grid>
	<sodipodi:guide  id="guide826" orientation="0,-1" position="86.879227,194.78261"></sodipodi:guide>
</sodipodi:namedview>
<defs>
	
		<inkscape:perspective  id="perspective3508" inkscape:persp3d-origin="64 : 34.666667 : 1" inkscape:vp_x="0 : 56 : 1" inkscape:vp_y="0 : 1000 : 0" inkscape:vp_z="128 : 56 : 1" sodipodi:type="inkscape:persp3d">
		</inkscape:perspective>
</defs>
<g id="layer1" inkscape:groupmode="layer" inkscape:label="Layer 1">
	<g id="g1218" transform="matrix(0.82806788,0,0,1.0839368,10.382367,-4.1223995)">
		<g id="g1628" transform="translate(0,2.9547218)">
			<path id="path1128" sodipodi:nodetypes="cc" class="st0" d="M47.8,107.9c0,0-87.6-100.3-26.9-92"/>
			<path id="path869" sodipodi:nodetypes="cc" class="st1" d="M53.9,106c0,0-73.7-88.6-31.4-84"/>
			<g id="g1772" transform="matrix(-0.8613672,-0.37991783,0.65097715,-0.86136724,73.898219,128.79034)">
				<path id="path3038" sodipodi:nodetypes="ccccccc" class="st2" d="M11.6,26.1l9,4L17.3,39l-8.5,6.7l-9-4l1.9-9.7L11.6,26.1z"/>
				<path id="path3585" sodipodi:nodetypes="ccccc" class="st3" d="M19.9,29.8l87.4,38.5l7.1,13.5L17.3,39L19.9,29.8z"/>
				<path id="path3585-8" sodipodi:nodetypes="ccccc" class="st3" d="M8.1,45.4L95.4,84l18.9-2.2L17.3,39L8.1,45.4z"/>
				<path id="path1899" sodipodi:nodetypes="cscsccc" class="st2" d="M107.4,68.4c0,0-5.3,1-2.9,3.8c2.4,2.8-3,4-3,4s-5.4,1.1-3,4
					s-3,3.8-3,3.8l23-0.3L107.4,68.4z"/>
				
					<path id="path1029" sodipodi:arc-type="slice" sodipodi:rx="2.9997542" sodipodi:cx="60" sodipodi:cy="109.48171" sodipodi:start="4.0531952" sodipodi:type="arc" sodipodi:end="5.3680976" sodipodi:ry="3" class="st4" d="
					M116.7,81.3c-1.5,0.3-2.2,1.3-1.8,2.4l3.6,0L116.7,81.3z"/>
			</g>
		</g>
	</g>
</g>
</svg>
