<?xml version="1.0" encoding="utf-8"?>
<!-- Generator: Adobe Illustrator 26.5.0, SVG Export Plug-In . SVG Version: 6.00 Build 0)  -->
<svg version="1.1" id="レイヤー_1" xmlns="http://www.w3.org/2000/svg" xmlns:xlink="http://www.w3.org/1999/xlink" x="0px"
	 y="0px" viewBox="0 0 120 120" style="enable-background:new 0 0 120 120;" xml:space="preserve">
<style type="text/css">
	.st0{opacity:0.8;fill:#999899;stroke:#323333;stroke-miterlimit:10;enable-background:new    ;}
	.st1{fill:#B20C00;stroke:#8C0900;stroke-width:1.5;stroke-miterlimit:10;}
	.st2{fill:#E6E6E5;stroke:#999899;stroke-miterlimit:10;}
	.st3{fill:#040000;stroke:#323333;stroke-miterlimit:10;}
	.st4{fill:#E6E6E5;stroke:#999899;stroke-width:1.5;stroke-miterlimit:10;}
</style>
<rect x="37.7" y="78" class="st0" width="20" height="40"/>
<path class="st1" d="M96.7,120h-55V30h45c5.5,0,10,4.5,10,10C96.7,40,96.7,120,96.7,120z"/>
<g>
	<g>
		<path class="st2" d="M101.9,46v17c0.6,0,3.8-5,4.7-6.6c0.1-0.1,0.3-0.1,0.3,0.1V78h3V56c0-1.7-1.3-3-3-3l0,0
			C106.9,53,102.5,46,101.9,46z"/>
		<rect x="109.8" y="75" class="st3" width="6" height="3"/>
	</g>
	<rect x="96.7" y="42" class="st3" width="5" height="25"/>
</g>
<g>
	<rect x="33.7" y="30" class="st4" width="8" height="40"/>
	<path class="st2" d="M37.7,30v-9.9h10c0.6,0,1,0.4,1,1V23c0,0.6-0.4,1-1,1h-6v6H37.7z"/>
</g>
</svg>
