<?xml version="1.0" encoding="utf-8"?>
<!-- Generator: Adobe Illustrator 26.5.0, SVG Export Plug-In . SVG Version: 6.00 Build 0)  -->
<svg version="1.1" id="レイヤー_1" xmlns="http://www.w3.org/2000/svg" xmlns:xlink="http://www.w3.org/1999/xlink" x="0px"
	 y="0px" viewBox="0 0 120 120" style="enable-background:new 0 0 120 120;" xml:space="preserve">
<style type="text/css">
	.st0{fill:#FFFFFF;stroke:#FFFFFF;stroke-miterlimit:10;}
	.st1{opacity:0.8;fill:#FFFFFF;stroke:#FFFFFF;stroke-miterlimit:10;enable-background:new    ;}
	.st2{fill:#FFFFFF;stroke:#FFFFFF;stroke-width:1.5;stroke-miterlimit:10;}
</style>
<rect x="75.5" y="49.4" class="st0" width="35" height="3"/>
<rect x="76.5" y="32" class="st0" width="35" height="2"/>
<rect x="62.3" y="78" class="st1" width="20" height="40"/>
<path class="st2" d="M23.3,120h55V30h-45c-5.5,0-10,4.5-10,10C23.3,40,23.3,120,23.3,120z"/>
<g>
	<g>
		<path class="st0" d="M18.1,46v17c-0.6,0-3.8-5-4.7-6.6c-0.1-0.1-0.3-0.1-0.3,0.1V78h-3V56c0-1.7,1.3-3,3-3l0,0
			C13.1,53,17.5,46,18.1,46z"/>
		<rect x="4.2" y="75" class="st0" width="6" height="3"/>
	</g>
	<rect x="18.3" y="42" class="st0" width="5" height="25"/>
</g>
<g>
	<rect x="109.5" y="30" class="st2" width="8" height="40"/>
	<path class="st0" d="M113.5,30v-9.9h-10c-0.6,0-1,0.4-1,1V23c0,0.6,0.4,1,1,1h6v6H113.5z"/>
</g>
</svg>
