<?xml version="1.0" encoding="utf-8"?>
<!-- Generator: Adobe Illustrator 26.5.0, SVG Export Plug-In . SVG Version: 6.00 Build 0)  -->
<svg version="1.1" id="レイヤー_1" xmlns="http://www.w3.org/2000/svg" xmlns:xlink="http://www.w3.org/1999/xlink" x="0px"
	 y="0px" viewBox="0 0 120 120" style="enable-background:new 0 0 120 120;" xml:space="preserve">
<style type="text/css">
	.st0{fill:#B20C00;}
	.st1{fill:#8C0900;}
	.st2{fill:none;stroke:#8C0900;stroke-width:0.75;stroke-miterlimit:10;}
	.st3{fill:#B20C00;stroke:#8C0900;stroke-width:0.75;stroke-miterlimit:10;}
	.st4{fill:#CCCCCC;}
	.st5{fill:#8C8C8C;}
	.st6{fill:#008EB2;stroke:#00718C;stroke-width:0.75;stroke-miterlimit:10;}
	.st7{fill:#999999;stroke:#666666;stroke-width:0.75;stroke-miterlimit:10;}
</style>
<g>
	<g>
		<g>
			<g>
				<rect x="41" y="1.7" transform="matrix(0.938 -0.3467 0.3467 0.938 -1.4077 16.7456)" class="st0" width="10.2" height="21.2"/>
				<path class="st1" d="M38.1,4.3l7.1,19.2l8.9-3.3L47,1.1L38.1,4.3 M37.2,3.8L47.5,0l7.6,20.6l-10.3,3.8L37.2,3.8L37.2,3.8z"/>
			</g>
		</g>
		<line class="st2" x1="42.3" y1="1.9" x2="49.9" y2="22.6"/>
		<line class="st2" x1="39.8" y1="3.1" x2="47.3" y2="23.5"/>
		<line class="st2" x1="44.9" y1="1" x2="52.6" y2="21.6"/>
	</g>
	<g>
		<g>
			<path class="st3" d="M63.2,41.1L63.6,25c-2.1-5.8-9-4.5-9-4.5L45,24c0,0-6.1,3.5-3.9,9.3l10.8,12L63.2,41.1z"/>
		</g>
		<g>
			<circle class="st4" cx="53" cy="30.8" r="3.1"/>
			<path class="st5" d="M52.1,28.3c-1.4,0.5-2.2,2.1-1.7,3.6c0.6,1.5,2.1,2.2,3.6,1.7s2.2-2.1,1.7-3.6
				C55.1,28.4,53.5,27.8,52.1,28.3 M51.8,27.5c1.8-0.7,3.8,0.3,4.5,2.1c0.7,1.8-0.3,3.8-2.1,4.5s-3.8-0.3-4.5-2.1
				C49.1,30.3,50,28.2,51.8,27.5L51.8,27.5z"/>
		</g>
	</g>
	<path class="st6" d="M63.6,25"/>
</g>
<g>
	<rect x="114.9" y="87.1" transform="matrix(0.8038 -0.5949 0.5949 0.8038 -31.3581 87.1178)" width="3" height="8"/>
	<polygon class="st3" points="63.4,32.4 108.4,86.4 109.6,85.8 98.7,72.1 98.7,72.1 102.1,69.6 116.5,87.5 107.8,92.6 63.4,40.8 	
		"/>
</g>
<g>
	<polygon class="st7" points="50.4,116.9 48.4,117.2 49,120.1 50.2,121.6 50.9,119.7 	"/>
	<path class="st3" d="M46.2,38.9l0.3,75.6l0.5,3.1l4.8-0.9c0,0-0.4-2.8-0.5-3.1c1.2-16.2,0-68.2,0-68.2L46.2,38.9z"/>
</g>
</svg>
