<?xml version="1.0" encoding="utf-8"?>
<!-- Generator: Adobe Illustrator 26.5.0, SVG Export Plug-In . SVG Version: 6.00 Build 0)  -->
<svg version="1.1" id="レイヤー_1" xmlns="http://www.w3.org/2000/svg" xmlns:xlink="http://www.w3.org/1999/xlink" x="0px"
	 y="0px" viewBox="0 0 120 120" style="enable-background:new 0 0 120 120;" xml:space="preserve">
<style type="text/css">
	.st0{stroke:#FFFFFF;stroke-miterlimit:10;}
	.st1{fill:none;stroke:#FFFFFF;stroke-width:0.75;stroke-miterlimit:10;}
	.st2{fill:#FFFFFF;stroke:#FFFFFF;stroke-width:0.75;stroke-miterlimit:10;}
	.st3{fill:#008EB2;stroke:#FFFFFF;stroke-width:0.75;stroke-miterlimit:10;}
	.st4{fill:#B20C00;stroke:#FFFFFF;stroke-width:0.75;stroke-miterlimit:10;}
</style>
<polygon class="st0" points="35.5,110.6 35.4,111.3 32.4,111.3 32.5,110.2 "/>
<g>
	<g>
		<line class="st1" x1="62.8" y1="0.4" x2="62.8" y2="0.2"/>
	</g>
	<g>
		<g>
			<path class="st2" d="M83.2,114.4h-1.5v2.9l-1,1.7l-1-1.7v-2.9h-1.4c0,0-0.1-2.8-0.1-3.1C74.1,95.6,66,44.2,66,44.2l3-7.5
				l14.1,74.6L83.2,114.4z"/>
			<polygon class="st2" points="32.4,111.3 35.4,111.3 34.7,118.5 31.7,118.2 			"/>
			<polygon class="st2" points="51,36.7 54,44.2 41.8,111.3 35.4,111.3 35.5,110.6 32.5,110.2 32.4,111.3 31.7,111.3 35.1,88.6 
				39.3,89.1 36.8,106.4 38.2,106.3 			"/>
			<path class="st2" d="M72,29l-6,15H54l-6-15c0-5.3,5-6.9,6.5-7.3V0h11v21.7C67,22.1,72,23.7,72,29z"/>
		</g>
	</g>
	<path class="st3" d="M48,29"/>
</g>
<polygon class="st4" points="35.5,110.6 35.4,111.3 32.4,111.3 32.5,110.2 "/>
</svg>
