<?xml version="1.0" encoding="utf-8"?>
<!-- Generator: Adobe Illustrator 26.5.0, SVG Export Plug-In . SVG Version: 6.00 Build 0)  -->
<svg version="1.1" id="レイヤー_1" xmlns="http://www.w3.org/2000/svg" xmlns:xlink="http://www.w3.org/1999/xlink" x="0px"
	 y="0px" viewBox="0 0 120 120" style="enable-background:new 0 0 120 120;" xml:space="preserve">
<style type="text/css">
	.st0{fill:none;stroke:#FFFFFF;stroke-width:0.75;stroke-miterlimit:10;}
	.st1{fill:#B20C00;stroke:#FFFFFF;stroke-width:0.75;stroke-miterlimit:10;}
	.st2{fill:#008EB2;stroke:#FFFFFF;stroke-width:0.75;stroke-miterlimit:10;}
	.st3{fill:#FFFFFF;stroke:#FFFFFF;stroke-width:0.75;stroke-miterlimit:10;}
</style>
<g>
	<g>
		<line class="st0" x1="49.9" y1="22.6" x2="49.9" y2="22.5"/>
		<line class="st0" x1="42.3" y1="1.9" x2="42.3" y2="1.9"/>
		<line class="st0" x1="47.3" y1="23.5" x2="47.3" y2="23.5"/>
		<line class="st0" x1="39.9" y1="3.3" x2="39.8" y2="3.1"/>
		<line class="st0" x1="52.6" y1="21.6" x2="52.6" y2="21.5"/>
		<line class="st0" x1="45" y1="1.4" x2="44.9" y2="1"/>
	</g>
	<g>
		<g>
			<polygon class="st1" points="46.6,39.4 46.2,39 46.2,38.9 			"/>
			<polygon class="st1" points="63.4,32.4 63.4,33 63.4,32.4 			"/>
		</g>
	</g>
	<path class="st2" d="M63.6,25"/>
</g>
<g>
	<polygon class="st1" points="63.4,32.4 63.4,33 63.4,32.4 	"/>
</g>
<g>
	<path class="st3" d="M51.8,116.7l-1.4,0.3l0.5,2.7l-0.7,1.9l-1.2-1.5l-0.6-2.8l-1.4,0.3l-0.5-3.1L46.2,39l0.4,0.5l4.7,6
		c0,0,1.2,52,0,68.2C51.4,113.9,51.8,116.7,51.8,116.7z"/>
	<polygon class="st3" points="120,93.4 117.6,95.2 113.3,89.4 107.8,92.6 63.4,40.8 63.4,33 63.4,32.4 108.4,86.4 109.6,85.8 
		98.7,72.1 102.1,69.6 116.5,87.5 115.9,87.9 	"/>
	<path class="st3" d="M63.4,32.4V33l-0.2,8l-11.3,4.2l-5.3-5.9l-0.4-0.5V39l-5.1-5.7c-1.9-5,2.5-8.3,3.6-9.1L37.2,3.8l5.1-1.9
		L47.5,0L55,20.4c1.6-0.2,6.8-0.3,8.6,4.6L63.4,32.4L63.4,32.4z"/>
	<polygon class="st1" points="46.6,39.4 46.2,39 46.2,38.9 	"/>
</g>
</svg>
