<?xml version="1.0" encoding="utf-8"?>
<!-- Generator: Adobe Illustrator 26.5.0, SVG Export Plug-In . SVG Version: 6.00 Build 0)  -->
<svg version="1.1" id="レイヤー_1" xmlns="http://www.w3.org/2000/svg" xmlns:xlink="http://www.w3.org/1999/xlink" x="0px"
	 y="0px" viewBox="0 0 120 120" style="enable-background:new 0 0 120 120;" xml:space="preserve">
<style type="text/css">
	.st0{fill:#999999;stroke:#666666;stroke-width:0.75;stroke-miterlimit:10;}
	.st1{fill:#008EB2;}
	.st2{fill:#00718C;}
	.st3{fill:none;stroke:#00718C;stroke-width:0.75;stroke-miterlimit:10;}
	.st4{fill:#008EB2;stroke:#00718C;stroke-width:0.75;stroke-miterlimit:10;}
	.st5{fill:#CCCCCC;}
	.st6{fill:#8C8C8C;}
</style>
<rect x="29.6" y="112.9" transform="matrix(0.1083 -0.9941 0.9941 0.1083 -83.7677 135.4062)" width="8" height="3"/>
<polygon class="st0" points="79.7,114.4 81.7,114.4 81.7,117.3 80.7,119 79.7,117.3 "/>
<g>
	<g>
		<g>
			<g>
				<rect x="54.9" y="0.4" class="st1" width="10.2" height="21.2"/>
				<path class="st2" d="M64.8,0.8v20.5h-9.5V0.8H64.8 M65.5,0h-11v22h11V0L65.5,0z"/>
			</g>
		</g>
		<line class="st3" x1="60" y1="0" x2="60" y2="22"/>
		<line class="st3" x1="62.8" y1="0.2" x2="62.8" y2="22"/>
		<line class="st3" x1="57.2" y1="0" x2="57.2" y2="22"/>
	</g>
	<g>
		<g>
			<path class="st4" d="M54,44l-6-15c0-6.2,6.9-7.4,6.9-7.4h10.2c0,0,6.9,1.2,6.9,7.4l-6,15H54z"/>
		</g>
		<g>
			<circle class="st5" cx="60" cy="30.8" r="3.1"/>
			<path class="st6" d="M60,28.1c1.5,0,2.8,1.2,2.8,2.8c0,1.6-1.2,2.8-2.8,2.8s-2.8-1.2-2.8-2.8S58.5,28.1,60,28.1 M60,27.3
				c-1.9,0-3.5,1.6-3.5,3.5c0,1.9,1.6,3.5,3.5,3.5s3.5-1.6,3.5-3.5C63.5,28.9,61.9,27.3,60,27.3L60,27.3z"/>
		</g>
	</g>
	<path class="st4" d="M48,29"/>
</g>
<polygon class="st4" points="51,36.7 38.2,106.3 36.8,106.4 39.3,89.1 39.3,89.1 35.1,88.6 31.7,111.3 41.8,111.3 54,44.2 "/>
<path class="st4" d="M69,36.7l14.1,74.6l0.1,3.1h-4.9c0,0-0.1-2.8-0.1-3.1C74.1,95.6,66,44.2,66,44.2L69,36.7z"/>
</svg>
