<?xml version="1.0" encoding="utf-8"?>
<!-- Generator: Adobe Illustrator 26.5.0, SVG Export Plug-In . SVG Version: 6.00 Build 0)  -->
<svg version="1.1" id="レイヤー_1" xmlns="http://www.w3.org/2000/svg" xmlns:xlink="http://www.w3.org/1999/xlink" x="0px"
	 y="0px" viewBox="0 0 120 120" style="enable-background:new 0 0 120 120;" xml:space="preserve">
<style type="text/css">
	.st0{opacity:0.8;fill:#999899;stroke:#323333;stroke-miterlimit:10;}
	.st1{fill:#1387A8;stroke:#026D86;stroke-width:1.5;stroke-miterlimit:10;}
	.st2{fill:#E6E6E5;stroke:#999899;stroke-miterlimit:10;}
	.st3{fill:#040000;stroke:#323333;stroke-miterlimit:10;}
	.st4{fill:#E6E6E5;stroke:#999899;stroke-width:1.5;stroke-miterlimit:10;}
</style>
<rect x="59" y="78" transform="matrix(-1 -1.224647e-16 1.224647e-16 -1 138 196)" class="st0" width="20" height="40"/>
<path class="st1" d="M20,120h55V30H30c-5.5,0-10,4.5-10,10V120z"/>
<g>
	<g>
		<path class="st2" d="M14.8,46v17c-0.6,0-3.8-5-4.7-6.6c-0.1-0.1-0.3-0.1-0.3,0.1V78h-3V56c0-1.7,1.3-3,3-3h0
			C9.8,53,14.2,46,14.8,46z"/>
		<rect x="0.8" y="75" transform="matrix(-1 -1.224647e-16 1.224647e-16 -1 7.6923 153)" class="st3" width="6" height="3"/>
	</g>
	<rect x="14.9" y="42" transform="matrix(-1 -1.224647e-16 1.224647e-16 -1 34.8461 109)" class="st3" width="5" height="25"/>
</g>
<g>
	
		<rect x="75.1" y="29.9" transform="matrix(-1 -1.224647e-16 1.224647e-16 -1 158.1539 99.897)" class="st4" width="8" height="40"/>
	<path class="st2" d="M79.1,29.9V20h-10c-0.6,0-1,0.4-1,1v1.9c0,0.6,0.4,1,1,1h6v6H79.1z"/>
</g>
</svg>
