<?xml version="1.0" encoding="utf-8"?>
<!-- Generator: Adobe Illustrator 26.3.1, SVG Export Plug-In . SVG Version: 6.00 Build 0)  -->
<svg version="1.1" id="レイヤー_1" xmlns="http://www.w3.org/2000/svg" xmlns:xlink="http://www.w3.org/1999/xlink" x="0px"
	 y="0px" viewBox="0 0 120 120" style="enable-background:new 0 0 120 120;" xml:space="preserve">
<style type="text/css">
	.st0{fill:none;stroke:#000000;stroke-miterlimit:10;}
</style>
<path class="st0" d="M58.1-1.4c-1.4-0.2-2.5,1.3-3.1,2.6c-3.4,7.6-2.1,16.6,1.8,23.9S67.2,38,74.2,42.4c2.1,1.3,4.4,2.8,4.9,5.2
	c0.2,0.8,0.1,1.6,0.3,2.3c0.8,3.3,5.3,4.1,7.4,6.7c0.6,0.7,1,1.7,0.8,2.6c-0.2,0.9-1,1.5-1.8,2.1c-6.3,4.7-12.6,9.4-19,14
	c-0.8,0.6-1.5,1.1-2.1,1.9c-0.4,0.5-0.6,1.1-0.9,1.7c-0.5,0.9-1.2,1.6-1.8,2.4c-6,7.7-4.4,19.5,1.7,27.2c2.1,2.6,4.6,4.8,6.7,7.4
	c3,3.6,5.3,8.1,4.8,12.7"/>
<path class="st0" d="M2,53.2c10.6-3.1,21.6,3.5,32.6,2.8"/>
<path class="st0" d="M104.3-1c-2.7,3.1-5.5,6.3-8.2,9.4c-0.7,0.8-1.4,1.6-1.7,2.6c-0.3,1.2,0,2.4,0,3.6c0,2.1-0.8,4.1-1.6,6.1
	c-1.2,3.1-2.2,6.5-2,9.8c0.2,3.4,1.9,6.8,4.9,8.3c2.6,1.3,5.8,0.9,7.6,3.2c1.8,2.3,5.5,5.7,6,8.6c0.5,3,0.5,8.1-1.1,10.7
	c-0.4,0.6-0.8,1.1-1.2,1.8c-0.4,0.7-0.6,1.5-0.7,2.3"/>
<path class="st0" d="M29.4,68.9c1.1,2.4,2.3,4.8,3.9,6.8c1.7,2.2,3.8,3.9,5.9,5.7c2.4,2,4.9,4.1,7.9,5.1c1.1,0.4,2.2,0.6,3.2,1
	c1.1,0.5,2.1,1.2,3,2c1.9,1.6,3.7,3.5,5.1,5.6"/>
<path class="st0" d="M23.8,55.3c1.7,4.6,3.5,9.1,5.6,13.6"/>
<path class="st0" d="M11,53.9c0.3-6.1,1.3-12.1,3.2-17.9"/>
<path class="st0" d="M46.7,86.5c-0.1-3.9-0.2-7.9,1.4-11.4c0.2-0.4,0.5-0.9,0.9-1.1c0.3-0.1,0.6-0.2,0.9-0.3
	c3.2-0.7,6.2-2.6,8.1-5.2"/>
<path class="st0" d="M33.4,76.8c-4.1-0.4-8,1.1-12,1.9c-0.5,0.1-1,0.2-1.4-0.1c-0.4-0.3-0.6-0.8-1-1.2c-0.9-0.7-2.2,0-3,0.7
	c-2,1.6-4.1,3.1-6.1,4.7"/>
<path class="st0" d="M59.2,100c5.4-1.2,11-1.7,16.6-1.6c0.6,0,1.2,0,1.8,0.3c0.8,0.4,1.1,1.4,1.6,2.1c1.3,1.9,3.8,2.5,6,2.8
	c2.1,0.3,4,0.7,7.4,0.9"/>
<path class="st0" d="M61.3,106.2c-5.1,0.4-10.5,0.8-15.2-1.1c-1.2-0.5-2.4-1.2-3.7-1.3c-1.6-0.2-3.1,0.3-4.6,1
	c-6.6,2.7-12.7,7.1-19.8,8.1"/>
<path class="st0" d="M94,11.8C88.8,11.9,83.5,11,78.7,13c-5.7,2.3-9.7,8.3-15.8,9c-0.7,0.1-1.6-0.1-1.6-0.8"/>
<path class="st0" d="M98.8,5.9c0.2,4.2,0.7,8.4,1.5,12.5c0.1,0.7,0.3,1.4,0.7,2c0.9,1.3,2.6,1.7,4.1,2.1c4.8,1.5,8.9,5.1,11,9.7"/>
<path class="st0" d="M18.5,77.6c-0.2,1.4-0.3,2.9-0.3,4.6"/>
<path class="st0" d="M85.6,61.4c3.4-0.5,7-1.1,10.2,0.1c0.8,0.3,1.6,0.7,2.4,0.7c1.5,0,2.7-1.3,3.7-2.4c1.1-1.1,2.6-2.1,4-1.5"/>
<path class="st0" d="M76.8,99.1c4,0.5,8.4,0.8,11.5-1.7c0.9-0.8,1.7-1.7,2.6-2.5s2.2-1.4,3.3-1.1c-0.6,0-1.3,0-1.9,0"/>
</svg>
