<?xml version="1.0" encoding="UTF-8" standalone="no"?>
<!-- Created with Inkscape (http://www.inkscape.org/) -->

<svg
   width="128.0px"
   height="128.0px"
   viewBox="0 0 128.0 128.0"
   version="1.1"
   id="SVGRoot"
   sodipodi:docname="eraser_enemy_attack.svg"
   inkscape:version="1.1.2 (b8e25be8, 2022-02-05)"
   inkscape:export-filename="/Users/iwahashikeigo/Documents/icons/stationery/png/eraser_enemy_attack.png"
   inkscape:export-xdpi="96"
   inkscape:export-ydpi="96"
   xmlns:inkscape="http://www.inkscape.org/namespaces/inkscape"
   xmlns:sodipodi="http://sodipodi.sourceforge.net/DTD/sodipodi-0.dtd"
   xmlns:xlink="http://www.w3.org/1999/xlink"
   xmlns="http://www.w3.org/2000/svg"
   xmlns:svg="http://www.w3.org/2000/svg">
  <sodipodi:namedview
     id="namedview829"
     pagecolor="#505050"
     bordercolor="#ffffff"
     borderopacity="1"
     inkscape:pageshadow="0"
     inkscape:pageopacity="0"
     inkscape:pagecheckerboard="1"
     inkscape:document-units="px"
     showgrid="true"
     inkscape:zoom="4"
     inkscape:cx="-42.75"
     inkscape:cy="68.375"
     inkscape:window-width="1701"
     inkscape:window-height="1081"
     inkscape:window-x="0"
     inkscape:window-y="23"
     inkscape:window-maximized="0"
     inkscape:current-layer="g5243"
     inkscape:snap-page="true"
     inkscape:snap-grids="true"
     showguides="false">
    <inkscape:grid
       type="xygrid"
       id="grid892" />
  </sodipodi:namedview>
  <defs
     id="defs824">
    <linearGradient
       id="linearGradient3803"
       inkscape:swatch="gradient">
      <stop
         style="stop-color:#666666;stop-opacity:1"
         offset="0"
         id="stop3799" />
      <stop
         style="stop-color:#333333;stop-opacity:1"
         offset="1"
         id="stop3801" />
    </linearGradient>
    <linearGradient
       inkscape:collect="always"
       xlink:href="#linearGradient3803"
       id="linearGradient3805"
       x1="31.797952"
       y1="124.54199"
       x2="85"
       y2="124.54199"
       gradientUnits="userSpaceOnUse"
       gradientTransform="matrix(-1,0,0,1,128,0)" />
  </defs>
  <g
     inkscape:label="Layer 1"
     inkscape:groupmode="layer"
     id="layer1">
    <g
       id="g5243"
       transform="matrix(0.68523498,0.72832206,0.72832206,-0.68523498,-29.353357,71.291821)">
      <path
         style="fill:#e6e6e6;fill-opacity:1;stroke:#000000;stroke-width:1;stroke-linecap:butt;stroke-linejoin:miter;stroke-miterlimit:4;stroke-dasharray:none;stroke-dashoffset:0;stroke-opacity:1"
         d="m 26,35 v 85 h 75 V 35 C 101,35 101,10 63.5,10 26,10 26,35 26,35 Z"
         id="path2107"
         sodipodi:nodetypes="cccczc" />
      <rect
         style="fill:#d42e00;fill-opacity:1;stroke-width:0"
         id="rect3366"
         width="25"
         height="85"
         x="26"
         y="35"
         ry="0" />
      <rect
         style="fill:#000000;fill-opacity:1;stroke-width:0"
         id="rect3390"
         width="25"
         height="85"
         x="76"
         y="35" />
      <rect
         style="fill:#ffffff;fill-opacity:1;stroke-width:1;stroke-miterlimit:4;stroke-dasharray:none;stroke-dashoffset:0"
         id="rect4989"
         width="25"
         height="85"
         x="51"
         y="35" />
      <path
         style="fill:none;stroke:#000000;stroke-width:1px;stroke-linecap:butt;stroke-linejoin:miter;stroke-opacity:1"
         d="m 26,35 h 75"
         id="path5701" />
    </g>
    <rect
       style="fill:#ffffff;fill-opacity:1;stroke-width:1;stroke-miterlimit:4;stroke-dasharray:none;stroke-dashoffset:0"
       id="rect5277"
       height="20"
       x="-35"
       y="-25" />
    <path
       style="fill:none;stroke:url(#linearGradient3805);stroke-opacity:1"
       d="m 43,127 h 24 c 0,0 34,-1 28,-5"
       id="path928"
       sodipodi:nodetypes="ccc" />
    <path
       style="fill:none;stroke:#d43f00;stroke-width:1px;stroke-linecap:butt;stroke-linejoin:miter;stroke-opacity:1"
       d="m 80,115 7,-3"
       id="path3936" />
    <path
       style="fill:none;stroke:#d43f00;stroke-width:1px;stroke-linecap:butt;stroke-linejoin:miter;stroke-opacity:1"
       d="m 76.725083,122 7.549834,-1"
       id="path3936-9" />
    <path
       style="fill:#cccccc;stroke:#ec1313;stroke-width:1px;stroke-linecap:butt;stroke-linejoin:miter;stroke-opacity:1"
       d="m 43,126 c 0.07407,0.0741 0.175373,0.12853 0.222222,0.22222 0.04058,0.0812 -0.602361,-0.16491 -0.333334,-0.11111 C 44.127079,126.35875 45,126 46,126 c 0.185185,0.037 0.941227,0.11111 1.130079,0.11111 1.51897,0 2.471352,-0.27885 3.981032,-0.11111 0.151773,0.0169 0.291736,0.11111 0.444444,0.11111 0.51984,0 1.042789,-0.19661 1.555556,-0.11111 0.418209,0.0697 0.904699,0.31752 1.333333,0.22222 0.194701,-0.0433 1.262663,-0.26641 1.262663,-0.26641 0.892946,-0.12806 1.248842,-0.21863 1.642692,-0.15531 C 58.139726,125.92749 59.111111,125.96299 59,126"
       id="path4807"
       sodipodi:nodetypes="csscscscscsc" />
    <path
       style="fill:none;stroke:#55ddff;stroke-width:1.3;stroke-linecap:butt;stroke-linejoin:miter;stroke-miterlimit:4;stroke-dasharray:none;stroke-opacity:1"
       d="M 123,80 C 68,80 68,80 68,80"
       id="path5073" />
    <path
       style="fill:none;stroke:#2ad4ff;stroke-width:1.3;stroke-linecap:butt;stroke-linejoin:miter;stroke-miterlimit:4;stroke-dasharray:none;stroke-opacity:1"
       d="M 128,70 C 73,70 73,70 73,70"
       id="path5073-8" />
    <path
       style="fill:none;stroke:#add8e3;stroke-width:1.3;stroke-linecap:butt;stroke-linejoin:miter;stroke-miterlimit:4;stroke-dasharray:none;stroke-opacity:1"
       d="M 118,90 C 63,90 63,90 63,90"
       id="path5073-5" />
    <path
       style="fill:#d7eef4;stroke:#add8e3;stroke-width:1.3;stroke-linecap:butt;stroke-linejoin:miter;stroke-miterlimit:4;stroke-dasharray:none;stroke-opacity:1"
       d="m 113,100 c -55,0 -55,0 -55,0"
       id="path5073-5-9" />
  </g>
</svg>
