<?xml version="1.0" encoding="utf-8"?>
<!-- Generator: Adobe Illustrator 26.3.1, SVG Export Plug-In . SVG Version: 6.00 Build 0)  -->
<svg version="1.1" id="レイヤー_1" xmlns="http://www.w3.org/2000/svg" xmlns:xlink="http://www.w3.org/1999/xlink" x="0px"
	 y="0px" viewBox="0 0 120 120" style="enable-background:new 0 0 120 120;" xml:space="preserve">
<style type="text/css">
	.st0{fill:#E6E6E6;stroke:#949494;stroke-width:0.5;stroke-miterlimit:10;}
	.st1{fill:#E6E6E6;}
	.st2{fill:#949494;}
	.st3{fill:url(#SVGID_1_);}
	.st4{fill:url(#SVGID_00000054979722604250378650000004251935751724760196_);}
	.st5{fill:#FFFFFF;stroke:#000000;stroke-miterlimit:10;}
	.st6{fill:url(#SVGID_00000103985339260080354490000007132178631503052690_);}
	.st7{fill:url(#SVGID_00000164485028852700628550000013766317928458976941_);}
	.st8{fill:#ADADAD;}
	.st9{fill:#B20C00;}
	.st10{fill:#8C0900;}
	.st11{fill:#999999;}
	.st12{fill:#FF9100;stroke:#000000;stroke-width:0.5;stroke-miterlimit:10;}
	.st13{fill:url(#SVGID_00000061456810108484464040000006712174887132301184_);}
	.st14{opacity:0.8;fill:none;stroke:#C77A14;stroke-width:0.25;stroke-miterlimit:10;enable-background:new    ;}
</style>
<path class="st0" d="M114.5,69.5c0,0-2.4,6.7-6.5,6l-35-2c0,0,2-4,4-3c2.8,1.4,2.1,2,5.6,2.3S101,74,109,74c1,0,2-4.5,2-4.5H114.5z"
	/>
<g>
	<rect x="111.3" y="56.2" class="st1" width="4.5" height="7.5"/>
	<path class="st2" d="M111.5,56.5v7h4v-7H111.5 M111,56h5v8h-5V56L111,56z"/>
</g>
<g>
	<g>
		
			<linearGradient id="SVGID_1_" gradientUnits="userSpaceOnUse" x1="58.7" y1="60" x2="100.7" y2="60" gradientTransform="matrix(-1 0 0 1 120 0)">
			<stop  offset="0" style="stop-color:#B20C00"/>
			<stop  offset="0.9356" style="stop-color:#F51000"/>
			<stop  offset="1" style="stop-color:#FF1100"/>
		</linearGradient>
		<rect x="19.3" y="50" class="st3" width="42" height="20"/>
	</g>
	
		<linearGradient id="SVGID_00000082333680739855135080000014763679835339163289_" gradientUnits="userSpaceOnUse" x1="58.7" y1="69.75" x2="100.7" y2="69.75" gradientTransform="matrix(-1 0 0 -1 120 120)">
		<stop  offset="0" style="stop-color:#8C0900"/>
		<stop  offset="0.9971" style="stop-color:#D92619"/>
	</linearGradient>
	<rect x="19.3" y="50" style="fill:url(#SVGID_00000082333680739855135080000014763679835339163289_);" width="42" height="0.5"/>
	<path class="st5" d="M22.7,49.5"/>
	
		<linearGradient id="SVGID_00000158010002528830256090000007990912101706554543_" gradientUnits="userSpaceOnUse" x1="58.7" y1="50.35" x2="100.7" y2="50.35" gradientTransform="matrix(-1 0 0 -1 120 120)">
		<stop  offset="0" style="stop-color:#8C0900"/>
		<stop  offset="0.9971" style="stop-color:#D92619"/>
	</linearGradient>
	<rect x="19.3" y="69.4" style="fill:url(#SVGID_00000158010002528830256090000007990912101706554543_);" width="42" height="0.5"/>
</g>
<g>
	<g>
		
			<linearGradient id="SVGID_00000039130237261807095600000010737698843981939608_" gradientUnits="userSpaceOnUse" x1="100.7" y1="60" x2="114.3" y2="60" gradientTransform="matrix(-1 0 0 1 120 0)">
			<stop  offset="0" style="stop-color:#FFFFFF"/>
			<stop  offset="1" style="stop-color:#FFFFFF"/>
		</linearGradient>
		<polygon style="fill:url(#SVGID_00000039130237261807095600000010737698843981939608_);" points="19.3,50.4 5.7,58.1 5.7,61.9 
			19.3,69.6 		"/>
		<path class="st8" d="M19,50.9L6,58.3v3.4l13,7.4V50.9 M19.5,50v20l-14-8v-4L19.5,50L19.5,50z"/>
	</g>
</g>
<g>
	<rect x="116.3" y="50.2" class="st9" width="3.5" height="19.5"/>
	<path class="st10" d="M116.5,50.5v19h3v-19H116.5 M116,50h4v20h-4V50L116,50z"/>
</g>
<g>
	<rect x="110.8" y="50.2" class="st9" width="4.5" height="19.5"/>
	<path class="st10" d="M111,50.5v19h4v-19H111 M110.5,50h5v20h-5V50L110.5,50z"/>
</g>
<g>
	<rect x="61.5" y="50.2" class="st1" width="48.8" height="19.5"/>
	<path class="st2" d="M61.7,50.5v19H110v-19H61.7 M61.3,50h49.2v20H61.3V50L61.3,50z"/>
</g>
<path class="st11" d="M5.5,58"/>
<path class="st12" d="M3.8,80"/>
<g>
	
		<linearGradient id="SVGID_00000114779902110678735070000008540382643211727246_" gradientUnits="userSpaceOnUse" x1="114.5" y1="60" x2="120" y2="60" gradientTransform="matrix(-1 0 0 -1 120 120)">
		<stop  offset="0" style="stop-color:#FF9100"/>
		<stop  offset="1" style="stop-color:#FFFFFF;stop-opacity:0.6"/>
	</linearGradient>
	<polygon style="fill:url(#SVGID_00000114779902110678735070000008540382643211727246_);" points="0,50 5.5,58 5.5,62 0,70 	"/>
	<line class="st14" x1="5.5" y1="62" x2="0" y2="70"/>
	<line class="st14" x1="5.5" y1="58.2" x2="0" y2="50.2"/>
</g>
</svg>
