<?xml version="1.0" encoding="utf-8"?>
<!-- Generator: Adobe Illustrator 26.3.1, SVG Export Plug-In . SVG Version: 6.00 Build 0)  -->
<svg version="1.1" id="レイヤー_1" xmlns="http://www.w3.org/2000/svg" xmlns:xlink="http://www.w3.org/1999/xlink" x="0px"
	 y="0px" viewBox="0 0 120 120" style="enable-background:new 0 0 120 120;" xml:space="preserve">
<style type="text/css">
	.st0{fill:url(#SVGID_1_);}
	.st1{fill:#FFFFFF;stroke:#000000;stroke-miterlimit:10;}
	.st2{fill:url(#SVGID_00000135659635756692447590000017273387788838442149_);}
	.st3{fill:#ADADAD;}
	.st4{fill:#FFFFFF;}
	.st5{fill:#999999;}
	.st6{fill:#FF9100;stroke:#000000;stroke-width:0.5;stroke-miterlimit:10;}
</style>
<g>
	<g>
		<linearGradient id="SVGID_1_" gradientUnits="userSpaceOnUse" x1="100.5" y1="69.945" x2="100.7" y2="69.945">
			<stop  offset="0" style="stop-color:#008EB2"/>
			<stop  offset="0.9308" style="stop-color:#00C3F5"/>
			<stop  offset="1" style="stop-color:#00CBFF"/>
		</linearGradient>
		<polygon class="st0" points="100.7,69.9 100.7,70 100.5,70 100.5,69.9 100.7,69.9 		"/>
	</g>
	<path class="st1" d="M97.3,49.5"/>
	
		<linearGradient id="SVGID_00000096037678154149927740000005886840322063541387_" gradientUnits="userSpaceOnUse" x1="100.68" y1="69.895" x2="100.7" y2="69.895">
		<stop  offset="0" style="stop-color:#00718C"/>
		<stop  offset="1" style="stop-color:#19B0D9"/>
	</linearGradient>
	<polygon style="fill:url(#SVGID_00000096037678154149927740000005886840322063541387_);" points="100.7,69.9 100.7,69.9 
		100.7,69.9 	"/>
</g>
<g>
	<g>
		<path class="st3" d="M100.5,69.9L100.5,69.9h0.2H100.5z"/>
	</g>
</g>
<g>
	<path class="st4" d="M114.5,58v4l-13.8,7.9l0,0h-0.2V70H9.1c0.3,1.2,1.1,4,1.9,4c8,0,22.9-0.9,26.4-1.2s2.8-0.9,5.6-2.3
		c2-1,4,3,4,3l-35,2c-3.4,0.6-5.7-4-6.3-5.5H4.5v-6H4v6H0V50h4v6h0.5v-6h96.2v0.1L114.5,58z"/>
</g>
<path class="st5" d="M114.5,58L114.5,58z"/>
<path class="st6" d="M116.2,80"/>
</svg>
