<?xml version="1.0" encoding="utf-8"?>
<!-- Generator: Adobe Illustrator 26.3.1, SVG Export Plug-In . SVG Version: 6.00 Build 0)  -->
<svg version="1.1" id="レイヤー_1" xmlns="http://www.w3.org/2000/svg" xmlns:xlink="http://www.w3.org/1999/xlink" x="0px"
	 y="0px" viewBox="0 0 120 120" style="enable-background:new 0 0 120 120;" xml:space="preserve">
<style type="text/css">
	.st0{fill:#E6E6E6;stroke:#949494;stroke-width:0.5;stroke-miterlimit:10;}
	.st1{fill:#E6E6E6;}
	.st2{fill:#949494;}
	.st3{fill:url(#SVGID_1_);}
	.st4{fill:url(#SVGID_00000076605254850651854800000010032931452460851084_);}
	.st5{fill:#FFFFFF;stroke:#000000;stroke-miterlimit:10;}
	.st6{fill:url(#SVGID_00000137122678729745144720000011108442099851405999_);}
	.st7{fill:url(#SVGID_00000175282538051585629550000004626751435531565214_);}
	.st8{fill:#ADADAD;}
	.st9{fill:#008EB2;}
	.st10{fill:#00708C;}
	.st11{fill:#999999;}
	.st12{fill:#FF9100;stroke:#000000;stroke-width:0.5;stroke-miterlimit:10;}
	.st13{fill:url(#SVGID_00000013154348433633076400000014375526384236954511_);}
	.st14{opacity:0.8;fill:none;stroke:#C77A14;stroke-width:0.25;stroke-miterlimit:10;enable-background:new    ;}
</style>
<path class="st0" d="M5.5,69.5c0,0,2.4,6.7,6.5,6l35-2c0,0-2-4-4-3c-2.8,1.4-2.1,2-5.6,2.3S19,74,11,74c-1,0-2-4.5-2-4.5H5.5z"/>
<g>
	<rect x="4.2" y="56.2" class="st1" width="4.5" height="7.5"/>
	<path class="st2" d="M8.5,56.5v7h-4v-7H8.5 M9,56H4v8h5V56L9,56z"/>
</g>
<g>
	<g>
		
			<linearGradient id="SVGID_1_" gradientUnits="userSpaceOnUse" x1="58.7" y1="60" x2="100.7" y2="60" gradientTransform="matrix(1 0 0 -1 0 120)">
			<stop  offset="0" style="stop-color:#008EB2"/>
			<stop  offset="0.9308" style="stop-color:#00C3F5"/>
			<stop  offset="1" style="stop-color:#00CBFF"/>
		</linearGradient>
		<rect x="58.7" y="50" class="st3" width="42" height="20"/>
	</g>
	
		<linearGradient id="SVGID_00000101825809785522007570000016390376749125946792_" gradientUnits="userSpaceOnUse" x1="58.7" y1="50.2" x2="100.7" y2="50.2">
		<stop  offset="0" style="stop-color:#00718C"/>
		<stop  offset="1" style="stop-color:#19B0D9"/>
	</linearGradient>
	<rect x="58.7" y="50" style="fill:url(#SVGID_00000101825809785522007570000016390376749125946792_);" width="42" height="0.5"/>
	<path class="st5" d="M97.3,49.5"/>
	
		<linearGradient id="SVGID_00000116926971512037966620000011477108106450620604_" gradientUnits="userSpaceOnUse" x1="58.7" y1="69.7" x2="100.7" y2="69.7">
		<stop  offset="0" style="stop-color:#00718C"/>
		<stop  offset="1" style="stop-color:#19B0D9"/>
	</linearGradient>
	<rect x="58.7" y="69.4" style="fill:url(#SVGID_00000116926971512037966620000011477108106450620604_);" width="42" height="0.5"/>
</g>
<g>
	<g>
		
			<linearGradient id="SVGID_00000078737164735364288040000006170517461073895320_" gradientUnits="userSpaceOnUse" x1="100.7" y1="60" x2="114.3" y2="60" gradientTransform="matrix(1 0 0 -1 0 120)">
			<stop  offset="0" style="stop-color:#FFFFFF"/>
			<stop  offset="1" style="stop-color:#FFFFFF"/>
		</linearGradient>
		<polygon style="fill:url(#SVGID_00000078737164735364288040000006170517461073895320_);" points="100.7,50.4 114.3,58.1 
			114.3,61.9 100.7,69.6 		"/>
		<path class="st8" d="M101,50.9l13,7.4v3.4l-13,7.4V50.9 M100.5,50v20l14-8v-4L100.5,50L100.5,50z"/>
	</g>
</g>
<g>
	<rect x="0.2" y="50.2" class="st9" width="3.5" height="19.5"/>
	<path class="st10" d="M3.5,50.5v19h-3v-19H3.5 M4,50H0v20h4V50L4,50z"/>
</g>
<g>
	<rect x="4.7" y="50.2" class="st9" width="4.5" height="19.5"/>
	<path class="st10" d="M9,50.5v19H5v-19H9 M9.5,50h-5v20h5V50L9.5,50z"/>
</g>
<g>
	<rect x="9.7" y="50.2" class="st1" width="48.8" height="19.5"/>
	<path class="st2" d="M58.3,50.5v19H10v-19H58.3 M58.7,50H9.5v20h49.2V50L58.7,50z"/>
</g>
<path class="st11" d="M114.5,58"/>
<path class="st12" d="M116.2,80"/>
<g>
	
		<linearGradient id="SVGID_00000183221979410085265120000009850616300597648573_" gradientUnits="userSpaceOnUse" x1="114.5" y1="60" x2="120" y2="60">
		<stop  offset="0" style="stop-color:#FF9100"/>
		<stop  offset="1" style="stop-color:#FFFFFF;stop-opacity:0.6"/>
	</linearGradient>
	<polygon style="fill:url(#SVGID_00000183221979410085265120000009850616300597648573_);" points="120,50 114.5,58 114.5,62 120,70 
			"/>
	<line class="st14" x1="114.5" y1="62" x2="120" y2="70"/>
	<line class="st14" x1="114.5" y1="58.2" x2="120" y2="50.2"/>
</g>
</svg>
