<?xml version="1.0" encoding="utf-8"?>
<!-- Generator: Adobe Illustrator 26.3.1, SVG Export Plug-In . SVG Version: 6.00 Build 0)  -->
<svg version="1.1" id="レイヤー_1" xmlns="http://www.w3.org/2000/svg" xmlns:xlink="http://www.w3.org/1999/xlink" x="0px"
	 y="0px" viewBox="0 0 120 120" style="enable-background:new 0 0 120 120;" xml:space="preserve">
<style type="text/css">
	.st0{fill:#E6E6E6;stroke:#949494;stroke-width:0.5;stroke-miterlimit:10;}
	.st1{fill:#E6E6E6;}
	.st2{fill:#949494;}
	.st3{fill:#B20C00;}
	.st4{fill:none;stroke:#8C0900;stroke-width:0.5;stroke-miterlimit:10;}
	.st5{fill:#FFFFFF;stroke:#000000;stroke-miterlimit:10;}
	.st6{fill:#8C0900;}
</style>
<path class="st0" d="M111,69.5c0,0-2.4,6.7-6.5,6l-35-2c0,0,2-4,4-3c2.8,1.4,2.1,2,5.6,2.3S97.5,74,105.5,74c1,0,2-4.5,2-4.5H111z"
	/>
<g>
	<rect x="111.3" y="56.2" class="st1" width="4.5" height="7.5"/>
	<path class="st2" d="M111.5,56.5v7h4v-7H111.5 M111,56h5v8h-5V56L111,56z"/>
</g>
<g>
	<g>
		<rect x="15.8" y="50" class="st3" width="42" height="20"/>
	</g>
	<line class="st4" x1="57.8" y1="50.2" x2="15.8" y2="50.2"/>
	<line class="st4" x1="57.8" y1="69.8" x2="15.8" y2="69.8"/>
	<path class="st5" d="M19.2,49.5"/>
</g>
<g>
	<g>
		<polygon class="st1" points="15.8,50.4 2.2,58.1 2.2,61.9 15.8,69.6 		"/>
		<path class="st2" d="M15.5,50.9l-13,7.4v3.4l13,7.4V50.9 M16,50v20L2,62v-4L16,50L16,50z"/>
	</g>
	<g>
		<rect y="58.4" width="2" height="3.2"/>
	</g>
</g>
<g>
	<rect x="116.3" y="50.2" class="st3" width="3.5" height="19.5"/>
	<path class="st6" d="M116.5,50.5v19h3v-19H116.5 M116,50h4v20h-4V50L116,50z"/>
</g>
<g>
	<rect x="107.3" y="50.2" class="st3" width="4.5" height="19.5"/>
	<path class="st6" d="M107.5,50.5v19h4v-19H107.5 M107,50h5v20h-5V50L107,50z"/>
</g>
<g>
	<rect x="58" y="50.2" class="st1" width="48.8" height="19.5"/>
	<path class="st2" d="M58.2,50.5v19h48.3v-19H58.2 M57.8,50H107v20H57.8V50L57.8,50z"/>
</g>
</svg>
