<?xml version="1.0" encoding="utf-8"?>
<!-- Generator: Adobe Illustrator 26.3.1, SVG Export Plug-In . SVG Version: 6.00 Build 0)  -->
<svg version="1.1" id="レイヤー_1" xmlns="http://www.w3.org/2000/svg" xmlns:xlink="http://www.w3.org/1999/xlink" x="0px"
	 y="0px" viewBox="0 0 120 120" style="enable-background:new 0 0 120 120;" xml:space="preserve">
<style type="text/css">
	.st0{fill:#E6E6E6;stroke:#949494;stroke-width:0.5;stroke-miterlimit:10;}
	.st1{fill:#E6E6E6;}
	.st2{fill:#949494;}
	.st3{fill:#008EB2;}
	.st4{fill:#FFFFFF;stroke:#00718C;stroke-width:0.5;stroke-miterlimit:10;}
	.st5{fill:#FFFFFF;stroke:#000000;stroke-miterlimit:10;}
	.st6{fill:#00708C;}
</style>
<path class="st0" d="M9,69.5c0,0,2.4,6.7,6.5,6l35-2c0,0-2-4-4-3c-2.8,1.4-2.1,2-5.6,2.3S22.5,74,14.5,74c-1,0-2-4.5-2-4.5H9z"/>
<g>
	<rect x="4.2" y="56.2" class="st1" width="4.5" height="7.5"/>
	<path class="st2" d="M8.5,56.5v7h-4v-7H8.5 M9,56H4v8h5V56L9,56z"/>
</g>
<g>
	<g>
		<rect x="62.2" y="50" class="st3" width="42" height="20"/>
	</g>
	<line class="st4" x1="62.2" y1="50.2" x2="104.2" y2="50.2"/>
	<line class="st4" x1="62.2" y1="69.8" x2="104.2" y2="69.8"/>
	<path class="st5" d="M100.8,49.5"/>
</g>
<g>
	<g>
		<polygon class="st1" points="104.2,50.4 117.8,58.1 117.8,61.9 104.2,69.6 		"/>
		<path class="st2" d="M104.5,50.9l13,7.4v3.4l-13,7.4V50.9 M104,50v20l14-8v-4L104,50L104,50z"/>
	</g>
	<g>
		<rect x="118" y="58.4" width="2" height="3.2"/>
	</g>
</g>
<g>
	<rect x="0.2" y="50.2" class="st3" width="3.5" height="19.5"/>
	<path class="st6" d="M3.5,50.5v19h-3v-19H3.5 M4,50H0v20h4V50L4,50z"/>
</g>
<g>
	<rect x="8.2" y="50.2" class="st3" width="4.5" height="19.5"/>
	<path class="st6" d="M12.5,50.5v19h-4v-19H12.5 M13,50H8v20h5V50L13,50z"/>
</g>
<g>
	<rect x="13.2" y="50.2" class="st1" width="48.8" height="19.5"/>
	<path class="st2" d="M61.8,50.5v19H13.5v-19H61.8 M62.2,50H13v20h49.2V50L62.2,50z"/>
</g>
</svg>
