<?xml version="1.0" encoding="utf-8"?>
<!-- Generator: Adobe Illustrator 26.5.0, SVG Export Plug-In . SVG Version: 6.00 Build 0)  -->
<svg version="1.1" id="レイヤー_1" xmlns="http://www.w3.org/2000/svg" xmlns:xlink="http://www.w3.org/1999/xlink" x="0px"
	 y="0px" viewBox="0 0 120 120" style="enable-background:new 0 0 120 120;" xml:space="preserve">
<style type="text/css">
	.st0{fill:none;stroke:#000000;stroke-width:0.75;stroke-miterlimit:10;}
	.st1{fill:#E0E0E0;}
	.st2{fill:#949494;}
	.st3{fill:#FFFFFF;stroke:#000000;stroke-miterlimit:10;}
	.st4{fill:#EBEBEB;}
	.st5{fill:#999999;}
	.st6{fill-rule:evenodd;clip-rule:evenodd;fill:#49C6E6;}
	.st7{fill:#3EA7C2;}
	.st8{fill:#66E1FF;fill-opacity:0.7062;stroke:#8CE8FF;stroke-width:0.5;}
	.st9{fill:#F8F8F8;fill-opacity:0.4;stroke:#8CE8FF;stroke-width:0.25;}
	.st10{fill:#49C6E6;}
	.st11{fill:#8CE8FF;}
	.st12{fill:#66E1FF;fill-opacity:0.7062;stroke:#8CE8FF;stroke-width:0.75;}
	.st13{opacity:0.4;fill:#F8F8F8;}
	.st14{fill:#C98D62;stroke:#9E6F4D;stroke-width:0.75;}
</style>
<g>
	<line class="st0" x1="60" y1="45.5" x2="60" y2="10.5"/>
</g>
<g>
	<rect x="27.9" y="45.4" class="st1" width="64.2" height="74.2"/>
	<g>
		<path class="st2" d="M91.8,45.8v73.5H28.2V45.8H91.8 M92.5,45h-65v75h65V45L92.5,45z"/>
	</g>
</g>
<path class="st3" d="M30,45"/>
<g>
	<polygon class="st4" points="27.9,45.6 27.9,38.4 32.1,38.4 32.1,41.4 37.9,41.4 37.9,38.4 42.1,38.4 42.1,41.4 47.9,41.4 
		47.9,38.4 52.1,38.4 52.1,41.4 57.9,41.4 57.9,38.4 62.1,38.4 62.1,41.4 67.9,41.4 67.9,38.4 72.1,38.4 72.1,41.4 77.9,41.4 
		77.9,38.4 82.1,38.4 82.1,41.4 87.9,41.4 87.9,38.4 92.1,38.4 92.1,45.6 	"/>
	<g>
		<path class="st5" d="M91.8,38.8v6.5H28.2v-6.5h3.5V41v0.8h0.8h5h0.8V41v-2.2h3.5V41v0.8h0.8h5h0.8V41v-2.2h3.5V41v0.8h0.8h5h0.8
			V41v-2.2h3.5V41v0.8h0.8h5h0.8V41v-2.2h3.5V41v0.8h0.8h5h0.8V41v-2.2h3.5V41v0.8h0.8h5h0.8V41v-2.2H91.8 M92.5,38h-5v3h-5v-3h-5v3
			h-5v-3h-5v3h-5v-3h-5v3h-5v-3h-5v3h-5v-3h-5v3h-5v-3h-5v8h65V38L92.5,38z"/>
	</g>
</g>
<g>
	<g>
		<polygon class="st6" points="59.8,25.2 59.8,10.5 83.3,25.2 		"/>
		<path class="st7" d="M60,11l22.4,14H60V11 M59.5,10.1V11v14v0.5H60h22.4h1.7l-1.5-0.9l-22.4-14L59.5,10.1L59.5,10.1z"/>
	</g>
	<g id="layer1">
		<path id="path855" class="st8" d="M71.8,22.2h-8.2l4.1-4.2L71.8,22.2z"/>
		<g id="path2211">
		</g>
		<circle id="path4361" class="st9" cx="67.7" cy="20.8" r="0.3"/>
	</g>
</g>
<g>
	<g>
		<circle class="st10" cx="60" cy="73.5" r="13"/>
		<path class="st11" d="M60,61c6.9,0,12.5,5.6,12.5,12.5S66.9,86,60,86s-12.5-5.6-12.5-12.5S53.1,61,60,61 M60,60
			c-7.4,0-13.5,6.1-13.5,13.5S52.6,87,60,87s13.5-6.1,13.5-13.5S67.4,60,60,60L60,60z"/>
	</g>
	<g id="layer1_00000156573225209448462740000015526353085624624782_">
		<path id="path855_00000098941151548824360380000005126476304913576356_" class="st12" d="M68.4,76H51.6l8.4-8.6L68.4,76z"/>
		<g id="path2211_00000076563788649859037290000006007699874641046201_">
		</g>
		<g id="path4361_00000110446779860786189760000018318938328915968900_">
			<path class="st13" d="M60,74.2c-0.6,0-1.1-0.5-1.1-1.1s0.5-1.1,1.1-1.1s1.1,0.5,1.1,1.1S60.6,74.2,60,74.2z"/>
			<path class="st11" d="M60,72.4c0.4,0,0.7,0.3,0.7,0.7c0,0.4-0.3,0.7-0.7,0.7s-0.7-0.3-0.7-0.7C59.3,72.7,59.6,72.4,60,72.4
				 M60,71.7c-0.8,0-1.5,0.7-1.5,1.5s0.7,1.5,1.5,1.5s1.5-0.7,1.5-1.5S60.8,71.7,60,71.7L60,71.7z"/>
		</g>
	</g>
</g>
<g>
	<rect x="77.8" y="85.5" class="st14" width="14.5" height="34"/>
	<g>
		<line class="st14" x1="82.5" y1="85.2" x2="82.5" y2="119.8"/>
		<line class="st14" x1="87.5" y1="85.2" x2="87.5" y2="119.8"/>
	</g>
</g>
</svg>
